<?xml version="1.0" standalone="no"?><!DOCTYPE svg PUBLIC "-//W3C//DTD SVG 1.1//EN" "http://www.w3.org/Graphics/SVG/1.1/DTD/svg11.dtd"><svg t="1659467936873" class="icon" viewBox="0 0 1024 1024" version="1.1" xmlns="http://www.w3.org/2000/svg" p-id="66951" xmlns:xlink="http://www.w3.org/1999/xlink" width="200" height="200"><defs><style type="text/css">@font-face { font-family: feedback-iconfont; src: url("//at.alicdn.com/t/font_1031158_u69w8yhxdu.woff2?t=1630033759944") format("woff2"), url("//at.alicdn.com/t/font_1031158_u69w8yhxdu.woff?t=1630033759944") format("woff"), url("//at.alicdn.com/t/font_1031158_u69w8yhxdu.ttf?t=1630033759944") format("truetype"); }
</style></defs><path d="M368.9 389.7m-142.4 0a142.4 142.4 0 1 0 284.8 0 142.4 142.4 0 1 0-284.8 0Z" fill="#D3CAFF" p-id="66952"></path><path d="M555.8 284.2m-36.8 0a36.8 36.8 0 1 0 73.6 0 36.8 36.8 0 1 0-73.6 0Z" fill="#D3CAFF" p-id="66953"></path><path d="M676.7 556.6m-58.3 0a58.3 58.3 0 1 0 116.6 0 58.3 58.3 0 1 0-116.6 0Z" fill="#D3CAFF" p-id="66954"></path><path d="M468.6 747.8c-16.1 0-32.2-6.1-44.5-18.4L301.3 606.6c-11.9-11.9-18.4-27.7-18.4-44.5s6.5-32.6 18.4-44.5l193.9-193.9c15-15 35.8-22.4 56.8-20.2l147.5 14.9c6.7 0.7 12.1 6 12.7 12.7l14.9 147.5c2.1 21.1-5.2 41.8-20.3 56.8L513 729.4c-12.2 12.3-28.3 18.4-44.4 18.4z m76.3-416.2c-11.1 0-21.7 4.4-29.6 12.3L321.4 537.8c-6.5 6.5-10.1 15.1-10.1 24.3s3.6 17.8 10.1 24.3l122.8 122.8c13.4 13.4 35.3 13.4 48.7 0l193.9-193.9c8.9-8.9 13.3-21.3 12.1-33.8l-13.7-136-136-13.7c-1.4-0.1-2.9-0.2-4.3-0.2z" fill="#3F08C4" p-id="66955"></path><path d="M750.9 279.8c-5.6-5.6-14.6-5.6-20.1 0L621.6 389c-20.8-11.4-48.6-8.8-65.7 8.5-21.3 21.3-21.3 56.1 0 77.4 10.3 10.3 24.1 16 38.7 16 14.6 0 28.4-5.7 38.7-16 17.8-17.8 20.6-45 8.6-65.9l109-109c5.6-5.6 5.6-14.6 0-20.2zM613.2 454.7c-9.9 9.9-27.2 9.9-37.1 0-10.2-10.2-10.2-26.9 0-37.2 5-5 11.6-7.7 18.6-7.7 7 0 13.6 2.7 18.6 7.7 10.1 10.3 10.1 27-0.1 37.2z" fill="#D46CFF" p-id="66956"></path></svg>